<?xml version="1.0" encoding="UTF-8"?>
<svg version="1.1" xmlns="http://www.w3.org/2000/svg" width="371" height="395">
<path d="M0 0 C3.75735699 -0.26737746 5.66761592 -0.03823496 8.7109375 2.2265625 C15.9306682 11.59269963 17.17856931 18.60215027 17.0234375 30.3515625 C16.81318064 71.4826298 23.65498286 107.31116533 51.6484375 138.87109375 C53.00101481 140.34428192 53.00101481 140.34428192 55.0234375 141.2265625 C55.0234375 141.8865625 55.0234375 142.5465625 55.0234375 143.2265625 C55.6834375 143.2265625 56.3434375 143.2265625 57.0234375 143.2265625 C57.6834375 143.9071875 58.3434375 144.5878125 59.0234375 145.2890625 C78.72757325 165.50278797 108.5526884 171.70115176 135.53735352 173.4050293 C141.59195905 173.84815662 146.25804356 174.675675 150.88671875 178.9453125 C151.36496094 179.533125 151.84320313 180.1209375 152.3359375 180.7265625 C152.82707031 181.314375 153.31820313 181.9021875 153.82421875 182.5078125 C157.04632771 187.12581883 156.439962 192.85031105 156.0234375 198.2265625 C154.29019172 203.42629984 151.46916992 206.08839844 147.0234375 209.2265625 C143.31707344 210.78323541 141.0803429 211.2265625 137.0234375 211.2265625 C136.6934375 211.8865625 136.3634375 212.5465625 136.0234375 213.2265625 C136.0234375 212.5665625 136.0234375 211.9065625 136.0234375 211.2265625 C135.3749585 211.25685547 134.72647949 211.28714844 134.05834961 211.31835938 C131.02602784 211.45796162 127.9935283 211.59293053 124.9609375 211.7265625 C123.86072266 211.77570801 122.76050781 211.82485352 121.62695312 211.87548828 C115.74175304 212.12344078 109.91121131 212.2409931 104.0234375 212.1015625 C82.11290369 211.97902036 62.2498984 220.83332008 46.0234375 235.2265625 C45.31316406 235.84144531 44.60289062 236.45632812 43.87109375 237.08984375 C31.33462052 248.6829784 23.55077442 265.77222548 20.0234375 282.2265625 C19.96175257 284.22561102 19.94181117 286.22822891 20.0234375 288.2265625 C19.3634375 288.2265625 18.7034375 288.2265625 18.0234375 288.2265625 C18.02787872 289.18376694 18.03231995 290.14097137 18.03689575 291.12718201 C18.07754644 300.17479208 18.10747196 309.22238347 18.12706184 318.27006435 C18.13747195 322.92088584 18.15158022 327.57163325 18.17431641 332.22241211 C18.19614403 336.71577235 18.20802696 341.20906159 18.21319199 345.70247078 C18.21687 347.41156188 18.224052 349.12064936 18.23489761 350.82971001 C18.3759105 373.98427826 18.3759105 373.98427826 11.84765625 380.78125 C7.12211446 384.52525528 1.89391335 385.51690335 -4.0390625 385.2890625 C-9.47635454 384.50988669 -13.18096781 382.1316455 -16.9765625 378.2265625 C-22.22606942 370.26763266 -21.07353442 360.62101497 -20.9765625 351.4765625 C-20.95109394 349.04431495 -20.93004713 346.61201586 -20.9140625 344.1796875 C-20.89666016 342.57335449 -20.89666016 342.57335449 -20.87890625 340.93457031 C-20.85273919 338.12831055 -20.85273919 338.12831055 -21.9765625 335.2265625 C-21.3165625 335.2265625 -20.6565625 335.2265625 -19.9765625 335.2265625 C-20.00685547 334.60088379 -20.03714844 333.97520508 -20.06835938 333.33056641 C-20.20492151 330.50425541 -20.34075101 327.67790967 -20.4765625 324.8515625 C-20.54810547 323.37429688 -20.54810547 323.37429688 -20.62109375 321.8671875 C-20.66621094 320.92617188 -20.71132812 319.98515625 -20.7578125 319.015625 C-20.8206543 317.71165771 -20.8206543 317.71165771 -20.88476562 316.38134766 C-20.94372644 314.99733662 -20.9765625 313.61182887 -20.9765625 312.2265625 C-21.6365625 312.2265625 -22.2965625 312.2265625 -22.9765625 312.2265625 C-22.7290625 311.2778125 -22.4815625 310.3290625 -22.2265625 309.3515625 C-21.38982517 303.26060693 -24.12998136 297.90317254 -27.5234375 292.984375 C-32.98916037 286.34026234 -40.19967638 280.97377667 -48.98266602 280.00537109 C-63.68861912 279.22622579 -73.29748506 282.05758769 -84.9765625 291.2265625 C-88.94805983 294.90798746 -92.71849286 298.76673508 -96.4765625 302.6640625 C-97.95446257 304.18986194 -99.43462223 305.71320446 -100.92102051 307.23072815 C-102.24929572 308.58761 -103.56922941 309.95264279 -104.88867188 311.31811523 C-106.9765625 313.2265625 -106.9765625 313.2265625 -108.9765625 313.2265625 C-108.9765625 313.8865625 -108.9765625 314.5465625 -108.9765625 315.2265625 C-110.33984375 316.56640625 -110.33984375 316.56640625 -112.2890625 318.1640625 C-116.92748585 322.07747474 -121.08571678 326.38514676 -125.265625 330.7734375 C-130.52039581 335.52847506 -135.97692916 337.40451928 -142.9765625 337.2265625 C-147.4834238 336.39465083 -150.80225078 334.80209945 -153.8515625 331.3515625 C-157.31222018 326.26236002 -158.58243755 322.8356233 -157.62231445 316.72021484 C-155.32086913 307.83289442 -147.23460231 301.08664527 -140.9140625 294.9140625 C-140.02912109 294.03427734 -139.14417969 293.15449219 -138.23242188 292.24804688 C-134.28252679 288.34556239 -130.33032106 284.67603035 -125.9765625 281.2265625 C-124.2961565 279.57374937 -122.6308565 277.90551066 -120.9765625 276.2265625 C-119.86632975 275.18034924 -118.75283997 274.13758527 -117.63671875 273.09765625 C-108.14186191 264.10960977 -100.79440265 255.65402442 -99.7265625 242.0390625 C-100.28487395 233.52481289 -102.93039149 226.35462296 -108.9765625 220.2265625 C-118.4538191 212.51525434 -129.25508481 212.91362229 -140.89453125 212.84765625 C-142.44054692 212.8314559 -143.98655258 212.8142733 -145.532547 212.79615784 C-149.58290973 212.75069514 -153.63328641 212.71577402 -157.68377686 212.68395996 C-164.17627579 212.63187554 -170.66862712 212.56672958 -177.16094398 212.49574471 C-179.42150687 212.47301347 -181.68205122 212.45668117 -183.94267273 212.44102478 C-185.33181971 212.42761319 -186.72096475 212.41399796 -188.11010742 212.40014648 C-189.31841721 212.39063461 -190.52672699 212.38112274 -191.77165222 212.37132263 C-194.9765625 212.2265625 -194.9765625 212.2265625 -197.78071594 211.6532135 C-200.00893983 210.98875127 -200.00893983 210.98875127 -201.9765625 212.2265625 C-202.6365625 210.9065625 -203.2965625 209.5865625 -203.9765625 208.2265625 C-204.6365625 208.2265625 -205.2965625 208.2265625 -205.9765625 208.2265625 C-208.99876458 202.81471227 -211.86807659 197.62412722 -210.5703125 191.22265625 C-208.96217411 186.17807927 -206.48852842 182.11170406 -201.9765625 179.2265625 C-198.36560365 177.90851278 -194.74100695 176.99016867 -190.9765625 176.2265625 C-190.9765625 176.8865625 -190.9765625 177.5465625 -190.9765625 178.2265625 C-190.2546875 177.8759375 -189.5328125 177.5253125 -188.7890625 177.1640625 C-185.6165057 176.10654357 -184.16275998 176.47193678 -180.9765625 177.2265625 C-179.9865625 176.8965625 -178.9965625 176.5665625 -177.9765625 176.2265625 C-176.46991093 176.15438481 -174.96013553 176.13949991 -173.4519043 176.16064453 C-172.53632248 176.17040314 -171.62074066 176.18016174 -170.67741394 176.19021606 C-169.68687515 176.20478851 -168.69633636 176.21936096 -167.67578125 176.234375 C-165.56185397 176.25191625 -163.44792133 176.26882207 -161.33398438 176.28515625 C-158.01441443 176.31589075 -154.69511642 176.35112444 -151.37573242 176.39794922 C-128.78981377 177.04600004 -128.78981377 177.04600004 -107.9765625 169.2265625 C-107.0896875 168.6696875 -106.2028125 168.1128125 -105.2890625 167.5390625 C-99.76928005 162.01928005 -96.89841563 155.22255002 -96.6640625 147.4765625 C-96.68459569 142.84975013 -97.76774209 139.77484152 -100.1015625 135.8203125 C-100.9765625 134.2265625 -100.9765625 134.2265625 -100.9765625 132.2265625 C-101.6365625 132.2265625 -102.2965625 132.2265625 -102.9765625 132.2265625 C-104.203125 130.94140625 -104.203125 130.94140625 -105.6015625 129.1640625 C-107.76379821 126.55589808 -109.95026931 124.28534365 -112.5390625 122.1015625 C-117.12361072 118.21891217 -121.29788948 113.95973995 -125.49633789 109.66943359 C-127.89462852 107.23402442 -130.12235373 105.12936835 -132.9765625 103.2265625 C-133.89985052 102.20456461 -134.78955471 101.15168707 -135.65234375 100.078125 C-139.78313969 95.14975493 -144.554047 90.9583852 -149.31835938 86.65625 C-155.20154715 81.2545649 -158.42672228 76.99184442 -159.3515625 68.9765625 C-158.79880143 63.4489518 -156.54206283 59.60548098 -152.47265625 55.83203125 C-147.44297969 52.40215543 -141.85087365 52.39824237 -135.9765625 53.2265625 C-129.97694809 55.03355297 -126.74075091 58.24155622 -122.9765625 63.2265625 C-121.32961765 64.91272032 -119.66530129 66.58226421 -117.9765625 68.2265625 C-117.4403125 68.8040625 -116.9040625 69.3815625 -116.3515625 69.9765625 C-114.88039632 71.48315336 -114.88039632 71.48315336 -111.9765625 72.2265625 C-111.38875 73.2784375 -111.38875 73.2784375 -110.7890625 74.3515625 C-109.11145816 77.01259007 -107.84645141 78.31645573 -105.48046875 80.2890625 C-100.42073403 84.6331467 -95.77808228 89.35242595 -91.1015625 94.1015625 C-89.418974 95.80956774 -87.73419117 97.51541501 -86.046875 99.21875 C-85.31227051 99.96495605 -84.57766602 100.71116211 -83.82080078 101.47998047 C-82.08461826 103.29350127 -82.08461826 103.29350127 -79.9765625 104.2265625 C-79.9765625 104.8865625 -79.9765625 105.5465625 -79.9765625 106.2265625 C-79.10837891 106.65775391 -79.10837891 106.65775391 -78.22265625 107.09765625 C-76.81258588 107.80636988 -75.40795576 108.52612669 -74.01171875 109.26171875 C-73.03525391 109.77025391 -73.03525391 109.77025391 -72.0390625 110.2890625 C-71.39066406 110.63066406 -70.74226562 110.97226563 -70.07421875 111.32421875 C-61.74250163 114.90825349 -50.74517389 114.2647142 -42.3203125 111.32421875 C-33.79927941 107.33353492 -27.43823211 100.67871533 -24.07948303 91.87527466 C-21.78319885 84.039087 -21.53587227 76.59821554 -21.53515625 68.46875 C-21.52334875 67.07112268 -21.50997646 65.6735078 -21.49513245 64.27590942 C-21.4592547 60.626576 -21.43883863 56.97735295 -21.42358398 53.32788086 C-21.39858394 47.48235818 -21.35863598 41.63707917 -21.30168343 35.79178238 C-21.28555317 33.76853578 -21.28195413 31.74520154 -21.27867126 29.72189331 C-21.14879718 13.84695364 -21.14879718 13.84695364 -17.2890625 7.4140625 C-11.99968062 2.41059316 -7.1595804 0.82066337 0 0 Z " fill="#0091E7" transform="translate(213.9765625,7.7734375)"/>
<path d="M0 0 C10.61635842 8.78399762 16.44717395 20.16310789 17.875 33.75 C18.61445503 47.72419094 14.05361274 59.02594381 5.26171875 69.60546875 C-3.92745507 79.33424864 -15.27143992 83.4661148 -28.453125 84.02734375 C-42.29483084 83.92063456 -53.9170405 79.83380589 -64.03515625 70.19140625 C-67.38505617 66.45523556 -69.78343433 62.4870296 -72 58 C-72.41378906 57.20335937 -72.82757813 56.40671875 -73.25390625 55.5859375 C-77.80743634 45.33652831 -77.97232101 30.72103293 -74.03515625 20.19140625 C-67.24756728 5.82220847 -57.7319793 -2.35587907 -43 -8 C-27.79469466 -11.61175888 -12.62864908 -9.12989221 0 0 Z " fill="#0083DF" transform="translate(336,256)"/>
<path d="M0 0 C5.59673839 -0.28948647 9.2027767 -0.23291136 14 3 C18.84306343 7.79769515 21.13447338 11.35202107 21.25 18.3125 C21.16505498 24.75982737 19.85487157 28.18634779 15.1875 32.75 C10.70981436 35.91071927 7.46706648 37 2 37 C1.505 37.99 1.505 37.99 1 39 C1 38.34 1 37.68 1 37 C0.351521 37.03029297 -0.29695801 37.06058594 -0.96508789 37.09179688 C-3.99740966 37.23139912 -7.0299092 37.36636803 -10.0625 37.5 C-11.16271484 37.54914551 -12.26292969 37.59829102 -13.39648438 37.64892578 C-19.28168446 37.89687828 -25.11222619 38.0144306 -31 37.875 C-52.91053381 37.75245786 -72.7735391 46.60675758 -89 61 C-90.06541016 61.92232422 -90.06541016 61.92232422 -91.15234375 62.86328125 C-104.6858834 75.37845554 -110.92462296 92.78691278 -116 110 C-118.43374845 103.36844382 -114.74423844 94.93221661 -112.00195312 88.75 C-105.195621 74.77847816 -96.49563819 62.76729185 -83.8984375 53.48828125 C-81.88650532 52.12967143 -81.88650532 52.12967143 -81 50 C-79.31669367 49.24885836 -77.6296154 48.50460736 -75.92138672 47.81201172 C-73.03204032 46.59092326 -70.32232783 45.05009027 -67.5625 43.5625 C-54.39201935 36.75383348 -40.0259986 34.93796601 -25.36328125 34.75390625 C-23.55142686 34.72100064 -21.73957802 34.6877885 -19.92773438 34.65429688 C-17.11030458 34.60678583 -14.29290237 34.56222849 -11.4753418 34.52319336 C-8.72944284 34.48339772 -5.98395249 34.43191816 -3.23828125 34.37890625 C-2.4006575 34.3704921 -1.56303375 34.36207794 -0.70002747 34.35340881 C5.39715764 34.22518547 10.088428 33.69917511 14.8125 29.5 C18.78805465 24.95650897 18.33061021 21.09397837 18.28515625 15.2109375 C17.82716645 10.05384687 16.08200322 7.80829159 12.1875 4.42578125 C9.67607421 2.7888698 7.69282698 2.3158783 4.75 1.8125 C3.85796875 1.65394531 2.9659375 1.49539062 2.046875 1.33203125 C1.37140625 1.22246094 0.6959375 1.11289063 0 1 C0 0.67 0 0.34 0 0 Z " fill="#066CB9" transform="translate(349,182)"/>
<path d="M0 0 C0.33 0 0.66 0 1 0 C1.04645583 10.40563275 1.08193635 20.81124059 1.10362434 31.21695614 C1.11403644 36.04937862 1.12814841 40.88172985 1.15087891 45.71411133 C1.17269936 50.38253538 1.18458797 55.05089113 1.18975449 59.71936226 C1.19343377 61.49543901 1.2006183 63.27151227 1.21146011 65.04755974 C1.22609755 67.54602854 1.22797287 70.04421944 1.22705078 72.54272461 C1.23424133 73.26777695 1.24143188 73.99282928 1.24884033 74.73985291 C1.21823757 82.46385652 0.32285715 89.8297129 -5.17578125 95.5546875 C-9.90132304 99.29869278 -15.12952415 100.29034085 -21.0625 100.0625 C-26.5035277 99.28278887 -30.19833438 96.90194937 -34 93 C-36.99658584 88.59876455 -37.31607924 85.2679873 -37 80 C-35.95831013 81.92311976 -35.06673652 83.75964817 -34.48046875 85.87109375 C-33.28757539 89.94232336 -31.99861576 92.49384871 -28.5 95 C-23.47130235 97.71771528 -18.57371433 98.00456479 -13 97 C-8.60951177 95.29579733 -5.80330538 93.07944161 -3 89.3125 C-1.65592431 84.86024926 -1.54745969 80.62113282 -2 76 C-2.33 75.67 -2.66 75.34 -3 75 C-3.11433638 71.97152724 -3.16393463 68.96682217 -3.16796875 65.9375 C-3.17206757 65.00663574 -3.17616638 64.07577148 -3.1803894 63.11669922 C-3.19000749 60.07776266 -3.18991101 57.03894965 -3.1875 54 C-3.18789276 52.97567871 -3.18828552 51.95135742 -3.18869019 50.89599609 C-3.17150367 13.71461046 -3.17150367 13.71461046 0 0 Z " fill="#0772BE" transform="translate(231,293)"/>
<path d="M0 0 C8.65533982 6.24214099 15.75728698 13.89479005 17.7890625 24.640625 C18.02437925 29.6573778 17.96765834 34.6200974 17.7890625 39.640625 C17.4590625 39.640625 17.1290625 39.640625 16.7890625 39.640625 C16.2940625 35.185625 16.2940625 35.185625 15.7890625 30.640625 C15.1290625 30.640625 14.4690625 30.640625 13.7890625 30.640625 C14.0365625 29.691875 14.2840625 28.743125 14.5390625 27.765625 C15.37579983 21.67466943 12.63564364 16.31723504 9.2421875 11.3984375 C3.77646463 4.75432484 -3.43405138 -0.61216083 -12.21704102 -1.58056641 C-26.78454467 -2.35237643 -36.72297165 0.30431399 -48.2109375 9.640625 C-50.4190293 11.74902035 -52.54304721 13.89681724 -54.6171875 16.13671875 C-56.2109375 17.640625 -56.2109375 17.640625 -58.2109375 17.640625 C-57.8809375 16.320625 -57.5509375 15.000625 -57.2109375 13.640625 C-56.2209375 13.640625 -55.2309375 13.640625 -54.2109375 13.640625 C-53.8809375 12.650625 -53.5509375 11.660625 -53.2109375 10.640625 C-51.24591281 8.88906281 -49.30435636 7.28599673 -47.2109375 5.703125 C-46.62513916 5.25654541 -46.03934082 4.80996582 -45.43579102 4.34985352 C-32.63274939 -5.17224439 -14.31326519 -8.80038213 0 0 Z " fill="#0471C2" transform="translate(177.2109375,289.359375)"/>
<path d="M0 0 C0.99 0.33 1.98 0.66 3 1 C2.34 1 1.68 1 1 1 C0.60711792 1.89078247 0.60711792 1.89078247 0.20629883 2.79956055 C-1.06663158 5.12154431 -2.33037296 6.45546693 -4.30078125 8.20703125 C-4.94853516 8.79419922 -5.59628906 9.38136719 -6.26367188 9.98632812 C-7.61720615 11.19276716 -8.97136155 12.39850974 -10.32617188 13.60351562 C-16.35030961 19.06754559 -21.69173967 24.29902994 -22.25 32.8125 C-22.18294591 36.86554746 -21.30073322 39.58856798 -19 43 C-14.40749992 46.41493595 -9.92580207 47.51749931 -4.1953125 47.390625 C4.82060601 45.78636904 11.96697676 36.33749357 18 30 C18 33.46367615 17.68699142 33.69594628 15.3671875 36.03125 C14.52800781 36.87623047 14.52800781 36.87623047 13.671875 37.73828125 C13.07890625 38.31964844 12.4859375 38.90101563 11.875 39.5 C11.30523437 40.08136719 10.73546875 40.66273438 10.1484375 41.26171875 C4.87486767 46.49933242 -0.20194673 49.46568434 -7.6953125 50.05859375 C-12.25356769 49.94270591 -16.1022821 48.68097347 -19.5390625 45.63671875 C-23.38808419 41.28124684 -25.26040427 37.52897173 -25 31.75 C-23.47159618 21.95335606 -15.43024663 15.03110021 -8.625 8.4375 C-7.79355469 7.61958984 -6.96210937 6.80167969 -6.10546875 5.95898438 C-4.07706275 3.96555089 -2.04196075 1.97953015 0 0 Z " fill="#1077B3" transform="translate(81,295)"/>
<path d="M0 0 C7.19895603 1.61976511 11.97085898 6.38347605 16.375 12.0625 C20.88475214 20.21474426 21.19308958 28.91444242 19.41796875 37.96875 C16.25542462 48.01957517 9.03504962 55.62418268 1.0625 62.23046875 C-2.84699392 65.58463683 -6.39744518 69.32239196 -10 73 C-10 70 -10 70 -7.99609375 67.78515625 C-7.0040414 66.84967288 -6.00445796 65.92215033 -5 65 C11.60684089 49.77489496 11.60684089 49.77489496 18.25 28.8125 C17.69414713 20.33574372 15.07785642 13.06486955 9 7 C6.64954257 5.23715693 4.27037969 3.65054348 1.7578125 2.12890625 C1.17773438 1.75636719 0.59765625 1.38382813 0 1 C0 0.67 0 0.34 0 0 Z " fill="#0779C4" transform="translate(96,221)"/>
<path d="M0 0 C1.66891885 3.19304566 2.99209703 6.46203123 4.3125 9.8125 C8.88813198 20.74096595 15.86297174 28.18331171 26.78515625 33.22265625 C38.82615585 37.44868609 51.74543795 36.70179321 64 34 C63 36 63 36 60.34765625 37.078125 C46.95049656 40.76742452 32.95285248 39.40136006 20.7890625 32.7578125 C12.60121069 27.59740169 7.38602627 21.58930145 3 13 C2.6596875 12.34644531 2.319375 11.69289063 1.96875 11.01953125 C0.16767885 7.24228482 -0.30418292 4.15716662 0 0 Z " fill="#0569B8" transform="translate(261,301)"/>
<path d="M0 0 C3.22434406 1.61217203 3.82392704 5.05023204 5.125 8.25 C10.11678411 20.04828286 16.73470136 30.19491339 25 40 C25.50917969 40.63164062 26.01835937 41.26328125 26.54296875 41.9140625 C28.89461355 44.89886941 28.89461355 44.89886941 32 47 C32 47.66 32 48.32 32 49 C32.66 49 33.32 49 34 49 C34 49.66 34 50.32 34 51 C30.50776142 49.7065783 28.68981351 47.65261477 26.44140625 44.73046875 C24.91406648 42.8353719 24.91406648 42.8353719 22.61328125 40.6796875 C13.61666256 31.45445518 0 13.28777975 0 0 Z " fill="#0674C0" transform="translate(237,102)"/>
<path d="M0 0 C0.33 0 0.66 0 1 0 C1.02554493 7.04344907 1.04294803 14.08688601 1.05493164 21.13037109 C1.0599323 23.5219772 1.06673498 25.91358029 1.07543945 28.30517578 C1.08769326 31.7607498 1.09327114 35.21628307 1.09765625 38.671875 C1.10281754 39.72550232 1.10797882 40.77912964 1.11329651 41.86468506 C1.11382157 48.95632157 0.69333898 55.94288918 0 63 C-0.33 63 -0.66 63 -1 63 C-2.11376059 49.6691425 -1.9810593 36.42030936 -1.625 23.0625 C-1.60357941 22.21040955 -1.58215881 21.35831909 -1.56008911 20.48040771 C-1.49641231 18.01928324 -1.42557051 15.55848984 -1.3515625 13.09765625 C-1.33166763 12.35561447 -1.31177277 11.61357269 -1.29127502 10.8490448 C-1.16784326 7.13198317 -0.86795609 3.62032554 0 0 Z " fill="#075AA9" transform="translate(231,293)"/>
<path d="M0 0 C-2.85734849 1.90489899 -5.64962019 3.28636892 -8.75 4.75 C-19.51493736 10.11949888 -26.74788546 17.66102789 -31 29 C-31.99430536 26.40408901 -32.13040485 25.32082866 -31.06640625 22.703125 C-24.71022314 12.33511722 -13.58828327 -1.21008831 0 0 Z " fill="#046CC0" transform="translate(295,249)"/>
<path d="M0 0 C0.33 0 0.66 0 1 0 C1.03758423 0.97610229 1.03758423 0.97610229 1.07592773 1.97192383 C1.19193702 4.91898046 1.31464115 7.8657213 1.4375 10.8125 C1.47681641 11.83666016 1.51613281 12.86082031 1.55664062 13.91601562 C1.59853516 14.89892578 1.64042969 15.88183594 1.68359375 16.89453125 C1.72025146 17.80050049 1.75690918 18.70646973 1.79467773 19.63989258 C1.9208205 22.15048782 1.9208205 22.15048782 3 25 C2.75367118 27.59069971 2.44871022 30.11836247 2.0625 32.6875 C1.96259766 33.38939453 1.86269531 34.09128906 1.75976562 34.81445312 C1.51270675 36.54386527 1.25717148 38.2720627 1 40 C0.67 40 0.34 40 0 40 C-0.59319888 32.64857108 -1.13590376 25.366421 -0.9375 17.98828125 C-0.91171571 15.78774407 -0.91171571 15.78774407 -2 13 C-1.34 13 -0.68 13 0 13 C0 8.71 0 4.42 0 0 Z " fill="#0666B2" transform="translate(194,330)"/>
<path d="M0 0 C7.1886776 1.61745246 11.92295173 6.37636008 16.375 12 C18.17766066 15.32798891 19.29778844 18.27827871 20 22 C19.34 22.99 18.68 23.98 18 25 C17.77957031 24.05640625 17.77957031 24.05640625 17.5546875 23.09375 C14.93904394 13.11221365 10.5724586 7.46714902 1.7578125 2.12890625 C1.17773438 1.75636719 0.59765625 1.38382813 0 1 C0 0.67 0 0.34 0 0 Z " fill="#0581CC" transform="translate(96,221)"/>
<path d="M0 0 C0.99 0.33 1.98 0.66 3 1 C2.34 1 1.68 1 1 1 C0.73952881 1.5887793 0.47905762 2.17755859 0.21069336 2.78417969 C-1.89350464 6.63529907 -5.24403043 9.2938626 -8.4375 12.25 C-9.4594043 13.22453125 -9.4594043 13.22453125 -10.50195312 14.21875 C-11.16001953 14.83234375 -11.81808594 15.4459375 -12.49609375 16.078125 C-13.09607178 16.63918945 -13.6960498 17.20025391 -14.31420898 17.77832031 C-16 19 -16 19 -19 19 C-12.73 12.73 -6.46 6.46 0 0 Z " fill="#0B7FC4" transform="translate(81,295)"/>
<path d="M0 0 C1 3 1 3 0.03125 5.05078125 C-3.90475893 10.86442709 -7.94538938 16.79224365 -14.9375 18.875 C-15.618125 18.91625 -16.29875 18.9575 -17 19 C-14.67173501 16.48547381 -12.54802779 14.7154249 -9.625 12.875 C-4.93672022 9.66509786 -2.61039599 4.92437338 0 0 Z " fill="#058BD1" transform="translate(117,163)"/>
<path d="M0 0 C0.33 0.66 0.66 1.32 1 2 C-2.69379408 8.08867157 -6.3750207 12.61251614 -12 17 C-12 16.01 -12 15.02 -12 14 C-11.319375 13.484375 -10.63875 12.96875 -9.9375 12.4375 C-5.71808301 8.93628164 -3.01012865 4.5455545 0 0 Z " fill="#0684CE" transform="translate(190,101)"/>
<path d="M0 0 C0.33 0 0.66 0 1 0 C1.06058594 0.81984375 1.12117187 1.6396875 1.18359375 2.484375 C1.26738281 3.56203125 1.35117188 4.6396875 1.4375 5.75 C1.51871094 6.81734375 1.59992188 7.8846875 1.68359375 8.984375 C1.94090773 11.43679962 2.31812218 13.63921291 3 16 C2.34 16 1.68 16 1 16 C1 18.97 1 21.94 1 25 C0.67 25 0.34 25 0 25 C0 16.75 0 8.5 0 0 Z " fill="#0377D0" transform="translate(229,344)"/>
<path d="M0 0 C0.66 0.33 1.32 0.66 2 1 C1.34 6.61 0.68 12.22 0 18 C-0.33 18 -0.66 18 -1 18 C-1.33 14.37 -1.66 10.74 -2 7 C-1.67 7 -1.34 7 -1 7 C-0.67 4.69 -0.34 2.38 0 0 Z " fill="#0379CE" transform="translate(195,352)"/>
<path d="M0 0 C-6.07877934 3.24201565 -11.18401613 3.33278764 -18 3 C-18 2.67 -18 2.34 -18 2 C-15.56421213 1.46969932 -13.12694025 0.95047688 -10.6875 0.4375 C-9.65206055 0.21030273 -9.65206055 0.21030273 -8.59570312 -0.02148438 C-5.24455934 -0.71761569 -3.30465928 -1.10155309 0 0 Z " fill="#0861AE" transform="translate(325,336)"/>
<path d="M0 0 C0.66 0 1.32 0 2 0 C0.59155282 3.21524305 -1.10344786 5.32183868 -3.625 7.75 C-4.57246094 8.67039062 -4.57246094 8.67039062 -5.5390625 9.609375 C-6.02117187 10.06828125 -6.50328125 10.5271875 -7 11 C-7.66 10.34 -8.32 9.68 -9 9 C-8.51789063 8.60167969 -8.03578125 8.20335937 -7.5390625 7.79296875 C-6.90742187 7.26316406 -6.27578125 6.73335938 -5.625 6.1875 C-4.99851562 5.66542969 -4.37203125 5.14335937 -3.7265625 4.60546875 C-1.7778952 2.91774261 -1.7778952 2.91774261 0 0 Z " fill="#057BC5" transform="translate(116,308)"/>
<path d="M0 0 C0.33 0 0.66 0 1 0 C1 1.65 1 3.3 1 5 C1.66 5.33 2.32 5.66 3 6 C2.67 10.62 2.34 15.24 2 20 C1.67 20 1.34 20 1 20 C0.67 13.4 0.34 6.8 0 0 Z " fill="#066AB5" transform="translate(229,336)"/>
<path d="M0 0 C4 1 4 1 4 1 Z " fill="#00BFFF" transform="translate(157,120)"/>
<path d="M0 0 C3 1 3 1 3 1 Z " fill="#00FFFF" transform="translate(76,221)"/>
<path d="" fill="#00FFFF" transform="translate(0,0)"/>
<path d="M0 0 C2 1 2 1 2 1 Z " fill="#00FFFF" transform="translate(301,341)"/>
<path d="M0 0 C2 1 2 1 2 1 Z " fill="#00FFFF" transform="translate(314,340)"/>
<path d="" fill="#00FFFF" transform="translate(0,0)"/>
<path d="M0 0 C2 1 2 1 2 1 Z " fill="#00BFFF" transform="translate(109,256)"/>
<path d="M0 0 C2 1 2 1 2 1 Z " fill="#007FFF" transform="translate(296,223)"/>
<path d="M0 0 C2 1 2 1 2 1 Z " fill="#00BFFF" transform="translate(84,221)"/>
<path d="M0 0 C2 1 2 1 2 1 Z " fill="#19CCE5" transform="translate(36,221)"/>
<path d="M0 0 C2 1 2 1 2 1 Z " fill="#00FFFF" transform="translate(327,220)"/>
<path d="" fill="#00FFFF" transform="translate(0,0)"/>
<path d="M0 0 C2 1 2 1 2 1 Z " fill="#00D4FF" transform="translate(162,120)"/>
<path d="" fill="#00BFBF" transform="translate(0,0)"/>
<path d="M0 0 C2 1 2 1 2 1 Z " fill="#4AB4B4" transform="translate(204,8)"/>
<path d="" fill="#007F7F" transform="translate(0,0)"/>
<path d="" fill="#00FFFF" transform="translate(0,0)"/>
<path d="" fill="#00FFFF" transform="translate(0,0)"/>
<path d="" fill="#00FFFF" transform="translate(0,0)"/>
<path d="" fill="#00FFFF" transform="translate(0,0)"/>
<path d="" fill="#00FFFF" transform="translate(0,0)"/>
<path d="" fill="#00FFFF" transform="translate(0,0)"/>
<path d="" fill="#00FFFF" transform="translate(0,0)"/>
<path d="" fill="#00FFFF" transform="translate(0,0)"/>
<path d="" fill="#00FFFF" transform="translate(0,0)"/>
<path d="" fill="#00FFFF" transform="translate(0,0)"/>
<path d="" fill="#007F7F" transform="translate(0,0)"/>
<path d="" fill="#00FFFF" transform="translate(0,0)"/>
<path d="" fill="#00FFFF" transform="translate(0,0)"/>
<path d="" fill="#00FFFF" transform="translate(0,0)"/>
<path d="" fill="#007FFF" transform="translate(0,0)"/>
<path d="" fill="#00FFFF" transform="translate(0,0)"/>
<path d="" fill="#00FFFF" transform="translate(0,0)"/>
<path d="" fill="#00FFFF" transform="translate(0,0)"/>
<path d="" fill="#00FFFF" transform="translate(0,0)"/>
<path d="" fill="#00FFFF" transform="translate(0,0)"/>
<path d="" fill="#007FFF" transform="translate(0,0)"/>
<path d="" fill="#007FFF" transform="translate(0,0)"/>
<path d="" fill="#007FFF" transform="translate(0,0)"/>
<path d="" fill="#00FFFF" transform="translate(0,0)"/>
<path d="" fill="#00FFFF" transform="translate(0,0)"/>
<path d="" fill="#00FFFF" transform="translate(0,0)"/>
<path d="" fill="#00FFFF" transform="translate(0,0)"/>
<path d="" fill="#00FFFF" transform="translate(0,0)"/>
<path d="" fill="#00AAFF" transform="translate(0,0)"/>
<path d="" fill="#00FFFF" transform="translate(0,0)"/>
<path d="" fill="#00FFFF" transform="translate(0,0)"/>
<path d="" fill="#00FFFF" transform="translate(0,0)"/>
<path d="" fill="#00FFFF" transform="translate(0,0)"/>
<path d="" fill="#00FFFF" transform="translate(0,0)"/>
<path d="" fill="#007FFF" transform="translate(0,0)"/>
<path d="" fill="#00FFFF" transform="translate(0,0)"/>
<path d="" fill="#007FFF" transform="translate(0,0)"/>
<path d="" fill="#00FFFF" transform="translate(0,0)"/>
<path d="" fill="#007F7F" transform="translate(0,0)"/>
<path d="" fill="#00FFFF" transform="translate(0,0)"/>
<path d="" fill="#00FFFF" transform="translate(0,0)"/>
<path d="" fill="#007FFF" transform="translate(0,0)"/>
<path d="" fill="#007FFF" transform="translate(0,0)"/>
<path d="" fill="#00FFFF" transform="translate(0,0)"/>
<path d="" fill="#007F7F" transform="translate(0,0)"/>
<path d="" fill="#00FFFF" transform="translate(0,0)"/>
<path d="" fill="#007FFF" transform="translate(0,0)"/>
<path d="" fill="#00FFFF" transform="translate(0,0)"/>
<path d="" fill="#00FFFF" transform="translate(0,0)"/>
<path d="" fill="#00BFFF" transform="translate(0,0)"/>
<path d="" fill="#00FFFF" transform="translate(0,0)"/>
<path d="" fill="#00FFFF" transform="translate(0,0)"/>
<path d="" fill="#007FFF" transform="translate(0,0)"/>
<path d="" fill="#00FFFF" transform="translate(0,0)"/>
<path d="" fill="#00FFFF" transform="translate(0,0)"/>
<path d="" fill="#007FFF" transform="translate(0,0)"/>
<path d="" fill="#007FFF" transform="translate(0,0)"/>
<path d="" fill="#00FFFF" transform="translate(0,0)"/>
<path d="" fill="#007FFF" transform="translate(0,0)"/>
<path d="" fill="#007FFF" transform="translate(0,0)"/>
<path d="" fill="#007FFF" transform="translate(0,0)"/>
<path d="" fill="#007FFF" transform="translate(0,0)"/>
<path d="" fill="#00AAFF" transform="translate(0,0)"/>
<path d="" fill="#00FFFF" transform="translate(0,0)"/>
<path d="" fill="#007FFF" transform="translate(0,0)"/>
<path d="" fill="#00FFFF" transform="translate(0,0)"/>
<path d="" fill="#55AAAA" transform="translate(0,0)"/>
<path d="" fill="#00FFFF" transform="translate(0,0)"/>
<path d="" fill="#00FFFF" transform="translate(0,0)"/>
<path d="" fill="#007FFF" transform="translate(0,0)"/>
<path d="" fill="#7F7F7F" transform="translate(0,0)"/>
<path d="" fill="#007FFF" transform="translate(0,0)"/>
<path d="" fill="#00FFFF" transform="translate(0,0)"/>
<path d="" fill="#00FFFF" transform="translate(0,0)"/>
<path d="" fill="#007FFF" transform="translate(0,0)"/>
<path d="" fill="#00FFFF" transform="translate(0,0)"/>
<path d="" fill="#007F7F" transform="translate(0,0)"/>
<path d="" fill="#00FFFF" transform="translate(0,0)"/>
<path d="" fill="#00FFFF" transform="translate(0,0)"/>
</svg>
